PathFileType	4	(X/Y/Z)	C:/Users/beibeiliu/ov580/test_trc\sequence.39_training_dense_left.trc
DataRate	CameraRate	NumFrames	NumMarkers	Units	OrigDataRate	OrigDataStartFrame	OrigNumFrames
120	120	19	19	mm	120	101	400
Frame#	Time	ThumbCMC			ThumbMCP			ThumbIP			ThumbTip			IndexMCP			IndexPIP			IndexTip			MiddleMCP			MiddlePIP			MiddleTip			RingMCP			RingPIP			RingTip			PinkyMCP			PinkyPIP			PinkyTip			BackHand1			BackHand2			BackHand3	
		X0	Y0	Z0	X1	Y1	Z1	X2	Y2	Z2	X3	Y3	Z3	X4	Y4	Z4	X5	Y5	Z5	X6	Y6	Z6	X7	Y7	Z7	X8	Y8	Z8	X9	Y9	Z9	X10	Y10	Z10	X11	Y11	Z11	X12	Y12	Z12	X13	Y13	Z13	X14	Y14	Z14	X15	Y15	Z15	X16	Y16	Z16	X17	Y17	Z17	X18	Y18	Z18	
100	0.833333	-134.14	-21.867	39.8097	-117.801	-35.8479	14.7842	-114.809	-41.0528	-5.75323	-112.471	-47.7532	-25.9359	-136.927	-31.9285	-26.2436	-146.961	-57.2312	-23.478	-151.601	-52.6022	9.11611	-159.69	-36.1265	-28.4513	-164.325	-59.7614	-15.0435	-158.076	-47.6728	16.3004	-174.425	-31.8495	-21.9062	-173.758	-53.4881	-5.99391	-168.838	-39.0313	20.4712	-191.178	-28.3118	-14.8101	-184.179	-47.7119	-1.44799	-176.278	-37.1277	21.3419	-171.21	7.30761	8.57268	-169.687	9.73361	39.7027	-143.423	2.55675	26.0372	
101	0.841667	-131.584	-20.7471	34.5054	-122.648	-34.1609	15.5408	-119.046	-38.7114	-7.37194	-115.41	-45.55	-26.9908	-136.925	-31.7927	-27.1642	-145.24	-56.8165	-23.9712	-152.225	-51.2237	9.01589	-158.292	-31.7705	-26.9233	-165.632	-58.9908	-12.1643	-163.061	-46.8978	15.1061	-174.161	-33.0926	-22.6906	-176.023	-54.0206	-2.18167	-169.673	-39.9576	19.7177	-190.759	-28.1198	-15.4571	-183.891	-47.1332	-2.99499	-177.371	-35.6252	22.1672	-170.813	8.16738	9.21402	-172.518	9.65954	34.6614	-142.641	4.99986	22.4349	
102	0.85	-130.98	-20.3857	34.7034	-119.57	-33.3282	12.0633	-118.328	-38.7446	-8.19953	-116.593	-45.0679	-28.9556	-135.919	-33.4319	-29.3917	-144.988	-57.7772	-22.9376	-151.608	-53.6341	5.23312	-160.574	-33.5717	-28.6938	-161.107	-59.9963	-14.7285	-160.943	-47.1917	15.23	-177.223	-32.3306	-21.8763	-173.454	-53.6092	-3.41418	-170.696	-39.1659	20.0178	-188.484	-26.6555	-14.692	-181.946	-47.2114	-0.715141	-178.19	-34.712	22.1384	-172.905	7.39325	8.23673	-169.598	9.23702	34.9438	-146.433	5.81601	22.4009	
103	0.858333	-135.356	-19.9973	34.5768	-122.303	-32.1933	14.2301	-116.205	-39.0502	-8.09951	-115.311	-44.123	-29.6885	-138.482	-30.0365	-29.0773	-146.524	-56.8557	-23.0035	-149.095	-52.1587	7.17231	-159.195	-32.8335	-28.1343	-163.371	-59.1781	-13.055	-160.081	-48.9555	13.7117	-173.742	-33.2938	-22.2211	-172.267	-53.6746	-4.95888	-168.975	-37.4429	19.6222	-188.712	-29.5104	-15.8538	-181.094	-47.7627	-0.379692	-175.126	-33.7815	22.2765	-173.634	5.80372	8.26223	-171.842	9.04474	34.9501	-148.341	5.26506	23.0768	
104	0.866667	-135.428	-19.755	37.3986	-123.064	-31.3177	12.5362	-116.666	-38.5648	-9.16835	-115.767	-43.1643	-32.3519	-137.4	-29.3192	-28.7864	-147.001	-56.1375	-22.3438	-151.22	-50.7727	7.56049	-160.929	-32.1149	-27.7523	-162.42	-58.9681	-15.2972	-158.231	-44.6937	15.4216	-175.918	-36.2414	-23.1216	-172.382	-54.3208	-7.07131	-167.331	-38.9533	18.6248	-189.43	-26.9259	-14.3703	-181.87	-48.4026	-1.88259	-177.243	-37.2282	21.7718	-176.125	7.37982	8.64309	-176.894	10.921	39.9611	-146.954	3.65761	26.5457	
105	0.875	-135.562	-17.7366	34.0503	-122.362	-31.7773	13.9997	-120.779	-35.6764	-9.93447	-117.762	-42.9527	-26.2707	-135.357	-28.3528	-27.7901	-145.534	-53.2925	-26.2626	-147.53	-52.2961	7.39469	-155.559	-31.1859	-28.2533	-160.196	-58.3128	-17.9446	-157.034	-47.8792	14.0952	-174.697	-30.1127	-22.2028	-169.746	-54.7758	-5.33241	-167.205	-38.6033	19.8427	-191.955	-30.0112	-14.8281	-183.784	-49.9289	-2.32478	-173.362	-38.1187	17.7172	-172.568	5.91602	10.5771	-174.073	9.54193	39.847	-151.086	4.53099	22.3249	
106	0.883333	-131.117	-19.0207	35.8622	-119.027	-33.9289	15.4348	-119.183	-37.8182	-10.5642	-121.124	-44.1159	-32.9785	-136.707	-29.2733	-30.2741	-143.218	-54.7565	-25.8146	-147.151	-53.0013	4.15253	-158.303	-33.0196	-30.4829	-160.238	-57.3558	-18.2374	-159.814	-46.2011	13.9808	-174.412	-30.306	-22.9351	-173.771	-53.7826	-8.45511	-169.929	-43.0514	16.916	-188.174	-32.4132	-15.9128	-185.509	-50.5783	-1.34599	-176.231	-35.6649	22.2488	-176.298	5.05469	8.85476	-175.691	8.40484	40.6514	-147.318	4.59535	25.9977	
107	0.891667	-133.978	-18.8813	35.853	-121.193	-32.1942	9.85806	-120.288	-38.5234	-9.3716	-120.632	-45.8855	-32.2604	-135.46	-25.0531	-29.5336	-143.483	-53.1427	-28.1866	-148.046	-52.4924	2.03419	-159.142	-32.3118	-30.9459	-159.524	-57.8378	-17.8062	-159.661	-49.178	10.0477	-176.494	-32.0891	-23.8309	-175.79	-54.892	-10.3861	-166.405	-43.4255	15.8973	-189.817	-30.7617	-16.8404	-183.008	-49.0473	-4.33151	-173.741	-37.539	17.7561	-177.912	6.10528	9.35298	-175.812	8.1437	39.9294	-148.085	7.51446	23.9792	
108	0.9	-132.864	-17.8652	35.3914	-123.49	-31.9374	11.2485	-118.94	-39.871	-9.98004	-121.487	-48.1871	-28.7451	-136.032	-24.7428	-30.7226	-142.834	-52.849	-29.4133	-142.846	-52.7994	3.14539	-156.595	-31.3936	-32.7617	-159.459	-57.7932	-18.7271	-155.695	-47.8383	9.75273	-176.731	-34.2725	-25.872	-174.737	-54.8302	-12.1123	-167.202	-43.4865	14.4533	-190.676	-30.6712	-16.7095	-183.434	-50.5889	-3.02214	-171.78	-41.1959	15.6446	-174.809	6.69124	9.52732	-174.186	10.0355	37.2126	-149.568	5.60961	22.1991	
109	0.908333	-133.283	-16.5623	32.6239	-118.536	-32.9142	12.5157	-120.507	-40.2347	-8.87632	-123.817	-48.1225	-31.5226	-139.195	-25.2093	-31.44	-141.962	-49.9972	-31.7535	-142.837	-55.4508	-2.35476	-157.562	-26.1235	-30.7288	-159.282	-57.3435	-23.264	-160.106	-50.7245	6.1679	-175.678	-30.652	-26.5329	-172.299	-54.358	-11.8953	-169.203	-47.576	11.7353	-192.03	-30.2611	-18.3399	-180.312	-49.2418	-7.421	-173.923	-42.556	16.3671	-176.72	6.53128	12.8483	-174.108	11.4175	39.838	-148.306	7.93269	25.6629	
110	0.916667	-131.679	-15.2295	37.6731	-117.962	-30.3321	11.0325	-120.338	-37.165	-9.89944	-127.59	-43.7715	-29.0818	-138.998	-21.8028	-30.8714	-144.675	-49.6344	-30.8125	-143.286	-56.7193	-4.56144	-157.446	-27.16	-32.8941	-161.07	-55.7801	-25.5462	-156.943	-49.5549	7.84929	-174.793	-28.2077	-27.0261	-172.694	-53.276	-17.2885	-169.509	-49.1277	10.6534	-190.298	-27.3538	-17.7371	-182.55	-48.3516	-10.6434	-173.58	-43.7932	10.9472	-178.716	6.70821	13.1926	-177.203	11.0669	40.4183	-148.455	9.30016	25.7423	
111	0.925	-132.742	-11.7566	37.0366	-118.67	-25.2698	17.6416	-118.411	-31.9084	-6.09225	-124.96	-41.5434	-27.1059	-138.554	-19.0005	-31.0656	-142.872	-45.6804	-36.0644	-143.423	-55.6652	-6.0666	-156.223	-24.3588	-34.5443	-160.677	-52.4586	-30.404	-158.633	-51.8013	3.81973	-177.479	-27.1021	-27.1749	-174.284	-52.8434	-20.6338	-168.812	-51.1387	6.76096	-194.353	-23.9781	-16.7032	-186.032	-49.0354	-14.8658	-174.215	-48.0932	13.3647	-176.591	6.47015	9.05678	-175.778	10.9345	39.7735	-153.136	9.4975	26.7092	
112	0.933333	-130.761	-8.8944	40.0159	-116.571	-19.8322	14.9256	-119.721	-26.5482	-6.74035	-130.899	-37.9918	-27.2147	-137.696	-14.7371	-30.7357	-137.837	-43.8788	-37.6491	-140.195	-55.9146	-8.67379	-160.929	-19.5125	-32.6748	-155.725	-49.3764	-35.2919	-155.418	-55.3865	-3.29709	-176.261	-25.8774	-29.0644	-171.991	-50.6951	-24.3839	-165.382	-52.0815	2.5672	-191.175	-26.5274	-18.9837	-182.956	-45.6946	-17.7986	-172.355	-48.4154	8.08175	-179.757	6.90099	13.9213	-176.821	10.7888	38.0783	-152.669	12.021	24.7338	
113	0.941667	-130.294	-6.18642	36.3268	-116.734	-15.2196	15.5616	-121.238	-23.576	-9.13915	-138.648	-34.5733	-26.8083	-138.825	-11.7023	-30.2837	-138.891	-41.0882	-39.504	-137.647	-55.3859	-12.9203	-160.94	-20.9675	-36.9437	-154.382	-46.9258	-38.1489	-154.641	-52.8832	-2.09976	-174.855	-24.5013	-30.8003	-168.713	-48.1334	-26.8724	-164.595	-52.2681	3.3134	-192.064	-24.234	-17.3963	-182.611	-49.3113	-17.0559	-172.144	-51.9316	7.88926	-176.691	7.73961	11.1117	-181.35	11.2161	39.6336	-152.824	12.2094	27.311	
114	0.95	-134.313	-4.79177	39.655	-119.504	-12.5742	10.5733	-126.508	-20.1686	-11.7557	-142.161	-31.1514	-22.578	-138.601	-8.40898	-31.9068	-137.19	-36.8964	-40.5874	-139.003	-53.4383	-18.9436	-156.11	-15.4623	-34.943	-154.981	-47.142	-36.7255	-150.697	-55.9159	-10.7344	-177.047	-23.3807	-32.0523	-169.055	-45.7902	-29.5788	-162.203	-53.1531	-2.92776	-190.042	-21.2973	-16.3284	-179.846	-44.5382	-20.9137	-171.768	-53.2627	2.65625	-180.56	6.76417	15.5413	-182.586	10.35	36.7998	-156.872	14.6616	27.1716	
115	0.958333	-135.145	-3.41647	36.0011	-119.368	-11.6083	14.3803	-125.246	-20.0441	-12.757	-142.611	-29.8871	-24.3853	-138.789	-6.39769	-31.4164	-136.749	-35.9224	-41.7409	-134.032	-52.1572	-20.7919	-160.309	-15.1573	-36.3496	-156.977	-46.1251	-37.7791	-150.799	-54.8735	-12.2846	-174.631	-18.5056	-28.6397	-166.462	-48.2504	-28.3292	-160.852	-51.3436	-3.4635	-190.883	-23.5648	-20.0227	-182.857	-45.8517	-20.4215	-167.901	-51.0079	2.09549	-181.433	7.33025	12.6359	-180.2	12.1063	38.1737	-152.409	14.6517	25.3046	
116	0.966667	-134.289	-2.06774	38.0298	-119.07	-9.62858	9.15462	-122.366	-18.4067	-10.574	-142.875	-28.6524	-24.1288	-140.664	-6.73545	-31.1292	-139.626	-31.8003	-43.3514	-134.936	-51.6608	-19.9121	-160.736	-13.4519	-35.5568	-153.198	-44.3603	-40.2651	-153.274	-54.4156	-10.0267	-177.123	-18.9314	-29.3031	-166.336	-46.6317	-29.7261	-162.545	-53.3436	-4.04895	-188.921	-23.5634	-19.6852	-183.133	-45.8576	-21.419	-169.723	-53.9132	1.14858	-178.662	10.7423	11.5641	-183.641	13.6513	37.6345	-154.112	17.2999	26.6205	
117	0.975	-132.184	-1.77057	36.8846	-114.706	-9.19731	8.86294	-120.225	-16.781	-10.1636	-136.82	-28.1217	-25.443	-141.502	-8.2365	-34.6208	-136.439	-34.4313	-42.6011	-135.31	-51.5996	-18.6373	-160.354	-13.5427	-36.2265	-157.228	-43.1334	-40.6242	-154.595	-54.703	-11.6466	-173.489	-19.5148	-30.5398	-166.974	-43.5215	-32.4057	-161.827	-51.9312	-3.786	-192.566	-22.4866	-18.0935	-181.875	-46.0746	-20.1493	-166.948	-52.3258	1.6176	-179.514	9.68893	8.73859	-177.965	12.7773	40.1599	-157.056	16.1009	22.721	
118	0.983333	-134.35	-1.26827	33.6801	-115.931	-8.26255	8.72537	-121.174	-15.8731	-11.4982	-131.146	-30.7319	-29.8018	-138.38	-6.80359	-35.1225	-135.65	-34.9949	-43.2131	-135.35	-51.2097	-20.7465	-157.386	-13.5832	-36.4399	-152.466	-42.2718	-41.5406	-151.249	-53.6631	-10.0181	-176.795	-22.4957	-33.3632	-169.217	-46.1979	-31.6173	-161.106	-52.1667	-1.62344	-191.37	-23.0359	-18.9289	-182.298	-45.6311	-21.6409	-165.438	-50.8194	0.351222	-181.839	10.4543	11.1522	-180.603	13.218	38.9637	-152.907	15.9528	25.6844	
